<svg width="60" height="60" viewBox="0 0 60 60" fill="none" xmlns="http://www.w3.org/2000/svg">
<path d="M49.2155 8.39999H10.7843C10.1519 8.39999 9.54544 8.65121 9.09828 9.09837C8.65112 9.54553 8.3999 10.152 8.3999 10.7844V49.2162C8.40006 49.8485 8.65134 50.4548 9.09849 50.9018C9.54563 51.3489 10.152 51.6 10.7843 51.6H31.4741V34.8708H25.8443V28.3512H31.4741V23.5428C31.4741 17.9628 34.8821 14.925 39.8597 14.925C42.2441 14.925 44.2931 15.102 44.8907 15.1818V21.0132L41.4383 21.015C38.7311 21.015 38.2073 22.3014 38.2073 24.189V28.3518H44.6633L43.8227 34.8714H38.2073V51.6H49.2161C49.8484 51.5998 50.4547 51.3486 50.9017 50.9014C51.3488 50.4543 51.5999 49.8479 51.5999 49.2156V10.7844C51.5999 10.152 51.3487 9.54553 50.9015 9.09837C50.4544 8.65121 49.8479 8.39999 49.2155 8.39999Z" fill="black"/>
</svg>
