<svg width="60" height="60" viewBox="0 0 60 60" fill="none" xmlns="http://www.w3.org/2000/svg">
<path fill-rule="evenodd" clip-rule="evenodd" d="M29.9989 7.1778C17.0767 7.1778 6.6001 17.655 6.6001 30.579C6.6001 40.9176 13.3033 49.6884 22.6027 52.7808C23.7739 52.9974 24.1999 52.2768 24.1999 51.6546C24.1999 51.1002 24.1795 49.6296 24.1693 47.6748C17.6599 49.0902 16.2865 44.5374 16.2865 44.5374C15.2221 41.8344 13.6879 41.1156 13.6879 41.1156C11.5633 39.6648 13.8493 39.693 13.8493 39.693C16.1977 39.8592 17.4337 42.1038 17.4337 42.1038C19.5205 45.6798 22.9111 44.6448 24.2437 44.0496C24.4555 42.5346 25.0615 41.5056 25.7293 40.9194C20.5339 40.329 15.0715 38.3214 15.0715 29.355C15.0715 26.7996 15.9829 24.7104 17.4793 23.0742C17.2399 22.485 16.4353 20.106 17.7091 16.8828C17.7091 16.8828 19.6735 16.254 24.1447 19.2834C26.0101 18.762 28.0123 18.5016 30.0025 18.4938C31.9897 18.5022 33.9925 18.762 35.8603 19.2834C40.3285 16.254 42.2899 16.8828 42.2899 16.8828C43.5667 20.106 42.7627 22.485 42.5227 23.0742C44.0227 24.7104 44.9275 26.7996 44.9275 29.355C44.9275 38.3424 39.4573 40.3224 34.2445 40.8996C35.0833 41.6226 35.8321 43.0536 35.8321 45.237C35.8321 48.3636 35.8039 50.8866 35.8039 51.654C35.8039 52.281 36.2245 53.01 37.4125 52.7778C46.7017 49.6788 53.4001 40.9146 53.4001 30.579C53.4001 17.655 42.9235 7.1778 29.9989 7.1778V7.1778Z" fill="black"/>
</svg>
