<svg width="60" height="60" viewBox="0 0 60 60" fill="none" xmlns="http://www.w3.org/2000/svg">
<path d="M48.4001 8.39999H11.5889C9.8285 8.39999 8.3999 9.79499 8.3999 11.5128V48.483C8.3999 50.2032 9.8285 51.6 11.5889 51.6H48.4001C50.1617 51.6 51.5999 50.2032 51.5999 48.483V11.5128C51.5999 9.79499 50.1617 8.39999 48.4001 8.39999ZM21.2123 45.2124H14.8019V24.597H21.2123V45.2124ZM18.0071 21.7782C17.5192 21.7782 17.036 21.682 16.5853 21.4953C16.1345 21.3085 15.725 21.0347 15.3801 20.6895C15.0352 20.3444 14.7616 19.9347 14.5751 19.4838C14.3886 19.0329 14.2928 18.5497 14.2931 18.0618C14.2931 17.0769 14.6844 16.1323 15.3808 15.4358C16.0773 14.7394 17.0219 14.3481 18.0068 14.3481C18.9917 14.3481 19.9363 14.7394 20.6328 15.4358C21.3292 16.1323 21.7205 17.0769 21.7205 18.0618C21.7205 19.0469 21.3294 19.9918 20.6331 20.6886C19.9367 21.3855 18.9922 21.7774 18.0071 21.7782ZM45.2099 45.2124H38.8097V35.1876C38.8097 32.796 38.7629 29.721 35.4791 29.721C32.1443 29.721 31.6361 32.3256 31.6361 35.0142V45.213H25.2311V24.597H31.3781V27.4122H31.4657C32.3213 25.7922 34.4117 24.0828 37.5293 24.0828C44.0129 24.0828 45.2105 28.3512 45.2105 33.9042V45.2124H45.2099Z" fill="black"/>
</svg>
