<svg width="60" height="60" viewBox="0 0 60 60" fill="none" xmlns="http://www.w3.org/2000/svg">
<path d="M53.1002 15.672C51.3703 16.4384 49.5354 16.9412 47.6564 17.1636C49.6355 15.9795 51.1165 14.1161 51.8234 11.9208C49.9632 13.0251 47.9276 13.8028 45.8048 14.22C44.918 13.2741 43.8463 12.5203 42.6562 12.0055C41.4661 11.4907 40.1829 11.2258 38.8862 11.2272C33.6518 11.2272 29.4074 15.4704 29.4074 20.706C29.4074 21.4482 29.4914 22.1724 29.6534 22.8666C21.7754 22.4712 14.7914 18.6972 10.1162 12.9618C9.27328 14.4084 8.83033 16.0533 8.83284 17.7276C8.83159 19.2882 9.21587 20.825 9.95151 22.2013C10.6871 23.5777 11.7514 24.751 13.0496 25.617C11.5447 25.5692 10.0728 25.1627 8.75664 24.4314C8.75544 24.471 8.75544 24.51 8.75544 24.5508C8.75544 29.142 12.0224 32.973 16.358 33.8448C14.962 34.2227 13.4983 34.2781 12.0776 34.0068C13.2836 37.7718 16.784 40.5132 20.9318 40.59C17.5742 43.225 13.4279 44.6542 9.15984 44.6478C8.39484 44.6478 7.64064 44.6034 6.89844 44.5152C11.2324 47.2999 16.2765 48.778 21.428 48.7728C38.8628 48.7728 48.3968 34.3302 48.3968 21.8058C48.3968 21.3954 48.3872 20.9856 48.3692 20.5782C50.226 19.2377 51.8281 17.5762 53.1002 15.672Z" fill="black"/>
</svg>
